Coordinates
version=1
nRows=24
nColumns=24
inDegrees=yes

Units are S.I. units (second, meters, Newtons, ...)
Angles are in degrees.

endheader
time	pelvis_tilt	pelvis_list	pelvis_rotation	pelvis_tx	pelvis_ty	pelvis_tz	hip_flexion_r	hip_adduction_r	hip_rotation_r	knee_angle_r	ankle_angle_r	subtalar_angle_r	mtp_angle_r	hip_flexion_l	hip_adduction_l	hip_rotation_l	knee_angle_l	ankle_angle_l	subtalar_angle_l	mtp_angle_l	lumbar_extension	lumbar_bending	lumbar_rotation
      0.84133333	     -2.32794200	     -3.07743853	     -1.91283461	     -0.40055121	      0.99527798	      0.31908572	     15.05548980	      6.26533391	      0.31576682	    -22.09584159	     11.69535622	    -10.40679459	      1.07280790	     15.45067748	     -3.80144716	     -3.76985784	    -71.44941200	    -10.11598592	    -13.99686692	      3.33421892	     -9.83848694	     11.62432901	     -0.96223895
      0.84550000	     -2.26485085	     -2.96377559	     -1.90513272	     -0.39559786	      0.99646273	      0.31958067	     14.42748699	      6.17622253	      0.41370760	    -21.58376725	     11.72360937	    -10.45346572	      1.08480937	     16.00664564	     -3.75479415	     -3.90054238	    -71.40113021	     -9.47443474	    -14.07134378	      3.20587378	     -9.94181067	     11.39661077	     -0.61114265
      0.84966667	     -2.22787587	     -2.83625487	     -1.90736037	     -0.39068014	      0.99754803	      0.32005856	     13.84692448	      6.06974827	      0.50136028	    -21.10848656	     11.74964893	    -10.47819376	      1.09952059	     16.58585063	     -3.68634049	     -4.03435476	    -71.30753542	     -8.83583411	    -14.18932392	      3.06162946	    -10.02381559	     11.16508173	     -0.33436284
      0.85383333	     -2.17719973	     -2.70093680	     -1.91304766	     -0.38576141	      0.99864005	      0.32052702	     13.24861541	      5.95160512	      0.58109595	    -20.62537035	     11.77673496	    -10.48552102	      1.11398841	     17.13593849	     -3.60487644	     -4.16972533	    -71.15060916	     -8.20941001	    -14.28792218	      2.92121371	    -10.11982834	     10.92788714	     -0.07737497
      0.85800000	     -2.13964090	     -2.54802758	     -1.92861834	     -0.38083797	      0.99969013	      0.32099389	     12.66666679	      5.81437009	      0.66455062	    -20.14760727	     11.80974097	    -10.48015781	      1.12885221	     17.68518058	     -3.50122938	     -4.31081573	    -70.93214330	     -7.59244450	    -14.35789730	      2.77872603	    -10.19834527	     10.67185512	      0.18349356
      0.86216667	     -2.09294630	     -2.38508634	     -1.94514421	     -0.37593289	      1.00071770	      0.32143504	     12.08411434	      5.66002674	      0.72794078	    -19.68564095	     11.82251818	    -10.44356689	      1.13760882	     18.21334738	     -3.37833516	     -4.44953260	    -70.65820194	     -6.98068937	    -14.45175634	      2.69376211	    -10.29705573	     10.41525415	      0.36276876
      0.86633333	     -2.02070196	     -2.24926533	     -1.97721103	     -0.37097057	      1.00178657	      0.32191935	     11.43768295	      5.54171957	      0.83510618	    -19.15211067	     11.84691750	    -10.45035114	      1.15982207	     18.68955447	     -3.29703859	     -4.60295633	    -70.32073887	     -6.38021785	    -14.45678845	      2.45757904	    -10.40938430	     10.17337897	      0.74033372
      0.87050000	     -1.93842306	     -2.05776206	     -1.99606921	     -0.36603617	      1.00282548	      0.32235418	     10.80798064	      5.35066419	      0.88671380	    -18.67329812	     11.90724561	    -10.39877885	      1.17135533	     19.14234969	     -3.13801364	     -4.74205967	    -69.91319027	     -5.80101497	    -14.41600871	      2.34779804	    -10.52360672	      9.87443769	      0.91312938
      0.87466667	     -1.89207653	     -1.88324733	     -2.02595928	     -0.36109225	      1.00376445	      0.32278910	     10.21565676	      5.17868611	      0.94765688	    -18.19260454	     11.94905224	    -10.34226617	      1.18277889	     19.62317553	     -2.99972051	     -4.88371780	    -69.46821495	     -5.21078852	    -14.36465242	      2.22763577	    -10.60694873	      9.59953339	      1.16795904
      0.87883333	     -1.83620716	     -1.71391114	     -2.05514272	     -0.35616510	      1.00467373	      0.32321247	      9.61343672	      5.00925044	      1.00165725	    -17.70902235	     11.98856957	    -10.28291598	      1.19270991	     20.08163007	     -2.86196540	     -5.01465369	    -68.97170220	     -4.62222867	    -14.27417403	      2.11572240	    -10.70393345	      9.33012261	      1.40166031
      0.88300000	     -1.78350124	     -1.53717026	     -2.08319577	     -0.35123284	      1.00553908	      0.32362442	      9.01797930	      4.82866759	      1.04044127	    -17.23142444	     12.03447748	    -10.20710341	      1.20145618	     20.52847384	     -2.71243187	     -5.14206505	    -68.42069313	     -4.05135906	    -14.16135891	      2.01159011	    -10.79226813	      9.05535886	      1.62326189
      0.88716667	     -1.71791092	     -1.35315816	     -2.11071438	     -0.34629549	      1.00639347	      0.32401626	      8.40969727	      4.63474233	      1.06633301	    -16.75482829	     12.08240418	    -10.11493327	      1.20873310	     20.94385652	     -2.54902258	     -5.26240662	    -67.81023671	     -3.49097515	    -14.01880608	      1.92370333	    -10.89342918	      8.77490636	      1.82428607
      0.89133333	     -1.66825392	     -1.17766345	     -2.13800085	     -0.34136867	      1.00716548	      0.32439904	      7.82412870	      4.44821287	      1.08149810	    -16.28803221	     12.13684602	    -10.00876862	      1.21533399	     21.36611451	     -2.39251605	     -5.37336641	    -67.15822809	     -2.93534796	    -13.84261032	      1.83954898	    -10.97782034	      8.50619031	      2.03068184
      0.89550000	     -1.64548753	     -0.98947286	     -2.16248662	     -0.33644744	      1.00786748	      0.32473194	      7.27695508	      4.24273457	      1.08063010	    -15.83644601	     12.14568001	     -9.90289037	      1.21841825	     21.80078769	     -2.20673177	     -5.46438411	    -66.44632638	     -2.40372565	    -13.67157838	      1.79521764	    -11.02640237	      8.25228930	      2.16822795
      0.89966667	     -1.58098299	     -0.84671604	     -2.18322271	     -0.33152099	      1.00854014	      0.32510954	      6.67206797	      4.08840155	      1.07943098	    -15.36386459	     12.24846410	     -9.77714682	      1.22497968	     22.18273006	     -2.08604682	     -5.55812954	    -65.71373701	     -1.85046659	    -13.38143728	      1.72506288	    -11.13369253	      8.00584537	      2.40289925
      0.90383333	     -1.55434563	     -0.67585657	     -2.20625889	     -0.32660291	      1.00913079	      0.32543868	      6.12518510	      3.89877904	      1.06325599	    -14.92188395	     12.31205498	     -9.63711889	      1.23041439	     22.58611780	     -1.91836142	     -5.63638143	    -64.91547854	     -1.33050108	    -13.12387486	      1.65139115	    -11.19636778	      7.75315943	      2.59107018
      0.90800000	     -1.52400189	     -0.51656069	     -2.22301960	     -0.32168116	      1.00967236	      0.32575184	      5.57492309	      3.71868176	      1.02956644	    -14.48109786	     12.37994052	     -9.49831474	      1.23520043	     22.97177167	     -1.75843693	     -5.70055683	    -64.07184273	     -0.83543420	    -12.83930833	      1.59492183	    -11.25478505	      7.51571024	      2.74453769
      0.91216667	     -1.47920196	     -0.36122199	     -2.23800905	     -0.31675979	      1.01019721	      0.32604463	      5.00870772	      3.53999824	      0.98974218	    -14.03781593	     12.44558740	     -9.34849010	      1.24004420	     23.32318703	     -1.59567152	     -5.75253769	    -63.17475040	     -0.35494957	    -12.53817022	      1.54457956	    -11.33549924	      7.28563622	      2.89685388
      0.91633333	     -1.47610050	     -0.19574007	     -2.25164351	     -0.31184682	      1.01061028	      0.32630559	      4.50154603	      3.34841433	      0.93708148	    -13.61977885	     12.46561082	     -9.20941166	      1.24221956	     23.70489706	     -1.41066892	     -5.78581244	    -62.22641580	      0.07710490	    -12.26137736	      1.52284388	    -11.36232947	      7.05973770	      2.99598580
      0.92050000	     -1.42132895	     -0.07498138	     -2.26241432	     -0.30691846	      1.01102402	      0.32658617	      3.92378993	      3.20546203	      0.88873325	    -13.17816156	     12.58740097	     -9.03173117	      1.24850912	     24.01777170	     -1.28210126	     -5.81693812	    -61.25238974	      0.53710710	    -11.89260732	      1.48725956	    -11.46086180	      6.86358135	      3.16824089
      0.92466667	     -1.40900101	      0.05104823	     -2.27175462	     -0.30200272	      1.01132023	      0.32683242	      3.40333090	      3.05610447	      0.83554862	    -12.75659133	     12.65896924	     -8.87699265	      1.25305234	     24.36163122	     -1.13623677	     -5.82801688	    -60.22935745	      0.94749635	    -11.56095069	      1.45698761	    -11.50672104	      6.67561139	      3.30103642
      0.92883333	     -1.39053337	      0.17555794	     -2.28079433	     -0.29707317	      1.01159498	      0.32705910	      2.87467975	      2.90624455	      0.78193431	    -12.33163963	     12.72807232	     -8.71991371	      1.25764771	     24.67681565	     -0.98482040	     -5.82602717	    -59.15003663	      1.32095818	    -11.23185435	      1.43074760	    -11.55903359	      6.49174578	      3.42454872
      0.93300000	     -1.38547043	      0.29367470	     -2.28935309	     -0.29214944	      1.01179437	      0.32726750	      2.36686300	      2.76265837	      0.72664225	    -11.91774973	     12.75731586	     -8.58059228	      1.26016424	     24.99085520	     -0.83233703	     -5.80438151	    -58.02457117	      1.64937577	    -10.92182637	      1.41873580	    -11.59329818	      6.32675412	      3.51649353
      0.93716667	     -1.33513625	      0.38992659	     -2.29865872	     -0.28720949	      1.01199243	      0.32749520	      1.79657477	      2.64322434	      0.67962218	    -11.47963323	     12.86306160	     -8.41950151	      1.26567730	     25.23835717	     -0.70974287	     -5.78859851	    -56.86339833	      1.97128375	    -10.58618632	      1.40085815	    -11.69474842	      6.16881330	      3.65023577
